<?xml version="1.0" standalone="no"?>
<svg viewBox="0 0 200 200" xmlns="http://www.w3.org/2000/svg">
  <path fill="#046A38" d="M29.3,-42C40.8,-44.1,55.1,-42,57.1,-34.4C59,-26.7,48.8,-13.3,46.6,-1.3C44.3,10.8,50.1,21.5,44.7,23.3C39.4,25.1,22.8,18,13.5,23.5C4.2,28.9,2.1,46.9,-5.6,56.7C-13.3,66.4,-26.6,67.8,-40.3,64.8C-54,61.9,-68.2,54.7,-68.7,43.2C-69.2,31.7,-56.1,15.8,-55.7,0.2C-55.2,-15.3,-67.5,-30.7,-64,-37C-60.4,-43.4,-41.2,-40.7,-27.9,-37.7C-14.6,-34.6,-7.3,-31.2,0.8,-32.5C8.9,-33.9,17.7,-40,29.3,-42Z" transform="translate(100 100)" />
</svg>
